HIERARCHY
ROOT pelvis
{
	OFFSET 0.003123 -0.351407 0.012037
	CHANNELS 6 Xposition Yposition Zposition Zrotation Yrotation Xrotation 
	JOINT left_hip
	{
		OFFSET 0.058189 -0.092763 -0.026001
		CHANNELS 3 Zrotation Yrotation Xrotation
		JOINT left_knee
		{
			OFFSET 0.054695 -0.378753 -0.009396
			CHANNELS 3 Zrotation Yrotation Xrotation
			JOINT left_ankle
			{
				OFFSET -0.043453 -0.403059 -0.031876
				CHANNELS 3 Zrotation Yrotation Xrotation
				JOINT left_foot
				{
					OFFSET 0.047257 -0.057997 0.118216
					CHANNELS 3 Zrotation Yrotation Xrotation
					End Site
					{
						OFFSET 0.000000 0.000000 0.000000
					}
				}
			}
		}
	}
	JOINT right_hip
	{
		OFFSET -0.063267 -0.103908 -0.021250
		CHANNELS 3 Zrotation Yrotation Xrotation
		JOINT right_knee
		{
			OFFSET -0.044210 -0.362380 -0.016824
			CHANNELS 3 Zrotation Yrotation Xrotation
			JOINT right_ankle
			{
				OFFSET 0.015417 -0.410728 -0.020192
				CHANNELS 3 Zrotation Yrotation Xrotation
				JOINT right_foot
				{
					OFFSET -0.038812 -0.058328 0.119049
					CHANNELS 3 Zrotation Yrotation Xrotation
					End Site
					{
						OFFSET 0.000000 0.000000 0.000000
					}
				}
			}
		}
	}
	JOINT spine_1
	{
		OFFSET -0.002763 0.109891 -0.027618
		CHANNELS 3 Zrotation Yrotation Xrotation
		JOINT spine_2
		{
			OFFSET 0.009448 0.131853 -0.005940
			CHANNELS 3 Zrotation Yrotation Xrotation
			JOINT spine_3
			{
				OFFSET -0.011330 0.052235 0.028447
				CHANNELS 3 Zrotation Yrotation Xrotation
				JOINT neck
				{
					OFFSET -0.012164 0.165167 -0.031615
					CHANNELS 3 Zrotation Yrotation Xrotation
					JOINT head
					{
						OFFSET 0.024783 0.160452 0.020737
						CHANNELS 3 Zrotation Yrotation Xrotation
						End Site
						{
							OFFSET 0.000000 0.000000 0.000000
						}
					}
				}
				JOINT left_collar
				{
					OFFSET 0.046364 0.084944 -0.007220
					CHANNELS 3 Zrotation Yrotation Xrotation
					JOINT left_shoulder
					{
						OFFSET 0.119239 0.057728 -0.015461
						CHANNELS 3 Zrotation Yrotation Xrotation
						JOINT left_elbow
						{
							OFFSET 0.254123 -0.072151 -0.042459
							CHANNELS 3 Zrotation Yrotation Xrotation
							JOINT left_wrist
							{
								OFFSET 0.251987 0.023221 -0.002472
								CHANNELS 3 Zrotation Yrotation Xrotation
								JOINT left_index_1
								{
									OFFSET 0.101902 -0.008688 0.019351
									CHANNELS 3 Zrotation Yrotation Xrotation
									JOINT left_index_2
									{
										OFFSET 0.030149 -0.011154 0.001151
										CHANNELS 3 Zrotation Yrotation Xrotation
										JOINT left_index_3
										{
											OFFSET 0.006504 -0.021577 -0.002433
											CHANNELS 3 Zrotation Yrotation Xrotation
											End Site
											{
												OFFSET 0.000000 0.000000 0.000000
											}
										}
									}
								}
								JOINT left_middle_1
								{
									OFFSET 0.109398 -0.006328 -0.003981
									CHANNELS 3 Zrotation Yrotation Xrotation
									JOINT left_middle_2
									{
										OFFSET 0.026472 -0.015218 -0.004641
										CHANNELS 3 Zrotation Yrotation Xrotation
										JOINT left_middle_3
										{
											OFFSET 0.005022 -0.023347 -0.001911
											CHANNELS 3 Zrotation Yrotation Xrotation
											End Site
											{
												OFFSET 0.000000 0.000000 0.000000
											}
										}
									}
								}
								JOINT left_pinky_1
								{
									OFFSET 0.084047 -0.014539 -0.043750
									CHANNELS 3 Zrotation Yrotation Xrotation
									JOINT left_pinky_2
									{
										OFFSET 0.012124 -0.014448 -0.005375
										CHANNELS 3 Zrotation Yrotation Xrotation
										JOINT left_pinky_3
										{
											OFFSET 0.003798 -0.018853 0.000167
											CHANNELS 3 Zrotation Yrotation Xrotation
											End Site
											{
												OFFSET 0.000000 0.000000 0.000000
											}
										}
									}
								}
								JOINT left_ring_1
								{
									OFFSET 0.097444 -0.009268 -0.027345
									CHANNELS 3 Zrotation Yrotation Xrotation
									JOINT left_ring_2
									{
										OFFSET 0.023561 -0.016057 -0.001895
										CHANNELS 3 Zrotation Yrotation Xrotation
										JOINT left_ring_3
										{
											OFFSET 0.004257 -0.023548 0.000814
											CHANNELS 3 Zrotation Yrotation Xrotation
											End Site
											{
												OFFSET 0.000000 0.000000 0.000000
											}
										}
									}
								}
								JOINT left_thumb_1
								{
									OFFSET 0.040636 -0.017977 0.025611
									CHANNELS 3 Zrotation Yrotation Xrotation
									JOINT left_thumb_2
									{
										OFFSET 0.021637 -0.017639 0.011623
										CHANNELS 3 Zrotation Yrotation Xrotation
										JOINT left_thumb_3
										{
											OFFSET 0.024002 -0.008356 0.006548
											CHANNELS 3 Zrotation Yrotation Xrotation
											End Site
											{
												OFFSET 0.000000 0.000000 0.000000
											}
										}
									}
								}
							}
						}
					}
				}
				JOINT right_collar
				{
					OFFSET -0.047695 0.084339 -0.013400
					CHANNELS 3 Zrotation Yrotation Xrotation
					JOINT right_shoulder
					{
						OFFSET -0.102578 0.053524 -0.012669
						CHANNELS 3 Zrotation Yrotation Xrotation
						JOINT right_elbow
						{
							OFFSET -0.271150 -0.036492 -0.026467
							CHANNELS 3 Zrotation Yrotation Xrotation
							JOINT right_wrist
							{
								OFFSET -0.249267 -0.004533 -0.015325
								CHANNELS 3 Zrotation Yrotation Xrotation
								JOINT right_index_1
								{
									OFFSET -0.099881 -0.011783 0.019600
									CHANNELS 3 Zrotation Yrotation Xrotation
									JOINT right_index_2
									{
										OFFSET -0.030148 -0.011154 0.001151
										CHANNELS 3 Zrotation Yrotation Xrotation
										JOINT right_index_3
										{
											OFFSET -0.006505 -0.021577 -0.002432
											CHANNELS 3 Zrotation Yrotation Xrotation
											End Site
											{
												OFFSET 0.000000 0.000000 0.000000
											}
										}
									}
								}
								JOINT right_middle_1
								{
									OFFSET -0.107376 -0.009422 -0.003734
									CHANNELS 3 Zrotation Yrotation Xrotation
									JOINT right_middle_2
									{
										OFFSET -0.026472 -0.015218 -0.004641
										CHANNELS 3 Zrotation Yrotation Xrotation
										JOINT right_middle_3
										{
											OFFSET -0.005022 -0.023347 -0.001911
											CHANNELS 3 Zrotation Yrotation Xrotation
											End Site
											{
												OFFSET 0.000000 0.000000 0.000000
											}
										}
									}
								}
								JOINT right_pinky_1
								{
									OFFSET -0.082027 -0.017634 -0.043503
									CHANNELS 3 Zrotation Yrotation Xrotation
									JOINT right_pinky_2
									{
										OFFSET -0.012123 -0.014448 -0.005374
										CHANNELS 3 Zrotation Yrotation Xrotation
										JOINT right_pinky_3
										{
											OFFSET -0.003798 -0.018852 0.000167
											CHANNELS 3 Zrotation Yrotation Xrotation
											End Site
											{
												OFFSET 0.000000 0.000000 0.000000
											}
										}
									}
								}
								JOINT right_ring_1
								{
									OFFSET -0.095423 -0.012362 -0.027099
									CHANNELS 3 Zrotation Yrotation Xrotation
									JOINT right_ring_2
									{
										OFFSET -0.023561 -0.016057 -0.001895
										CHANNELS 3 Zrotation Yrotation Xrotation
										JOINT right_ring_3
										{
											OFFSET -0.004257 -0.023548 0.000816
											CHANNELS 3 Zrotation Yrotation Xrotation
											End Site
											{
												OFFSET 0.000000 0.000000 0.000000
											}
										}
									}
								}
								JOINT right_thumb_1
								{
									OFFSET -0.038613 -0.021074 0.025861
									CHANNELS 3 Zrotation Yrotation Xrotation
									JOINT right_thumb_2
									{
										OFFSET -0.021636 -0.017639 0.011623
										CHANNELS 3 Zrotation Yrotation Xrotation
										JOINT right_thumb_3
										{
											OFFSET -0.024004 -0.008353 0.006547
											CHANNELS 3 Zrotation Yrotation Xrotation
											End Site
											{
												OFFSET 0.000000 0.000000 0.000000
											}
										}
									}
								}
							}
						}
					}
				}
			}
		}
	}
}
MOTION
Frames: 6
Frame Time: 0.050000
-0.050383 0.945292 0.545700 124.843121 70.362964 121.509725 -17.025818 0.651098 7.078880 -2.692945 -5.419507 -9.200669 22.593377 14.780440 29.247034 0.000000 0.000000 0.000000 -7.903068 -15.872968 -25.416882 -49.394941 -6.254877 20.595445 28.445043 -74.159760 104.245743 0.000000 0.000000 0.000000 17.106466 -6.448057 5.296313 -35.296237 -6.125676 -18.041642 30.342382 41.658556 37.872793 -15.667806 -12.435034 3.676159 0.000000 0.000000 0.000000 20.275050 8.880796 -48.807225 -19.728767 27.142921 -17.203492 -160.564340 -64.216568 117.141655 10.013011 -2.404673 44.296080 -33.102949 17.860033 -1.459222 9.194258 1.983927 14.051135 0.000000 0.000000 0.000000 -15.923603 11.119840 -2.390099 -12.642327 5.970062 18.245891 0.000000 0.000000 0.000000 52.981172 -11.358019 1.621946 -69.419445 63.584340 3.929260 0.000000 0.000000 0.000000 6.626830 13.248714 0.103189 -52.718739 9.120582 17.645654 0.000000 0.000000 0.000000 -8.653038 29.864653 28.641785 1.722779 1.002977 -0.784527 0.000000 0.000000 0.000000 -27.991000 5.622442 59.778180 -77.378949 50.472965 15.134117 -82.564364 -81.444916 106.544495 2.489457 -20.708675 -25.238274 -34.235577 -26.631792 29.990719 -122.272165 18.874814 -19.866462 0.000000 0.000000 0.000000 -7.908786 25.743814 -13.417613 -155.761513 25.242309 -50.700867 0.000000 0.000000 0.000000 -53.024576 44.384117 -80.811382 -35.726536 0.396440 2.142707 0.000000 0.000000 0.000000 -22.319903 50.055482 -37.586147 -69.668783 -3.695501 -18.220534 0.000000 0.000000 0.000000 -91.486633 -15.425001 47.958540 31.836123 25.336273 7.206288 0.000000 0.000000 0.000000 
-0.042374 0.946259 0.553619 118.036439 71.810030 114.914839 -16.733807 0.685471 7.880008 -1.872519 -5.267388 -10.680291 22.738026 15.643777 31.089082 0.000000 0.000000 0.000000 -7.480082 -15.440947 -26.066951 -48.372178 -5.492326 21.404108 39.993805 -72.334100 94.422314 0.000000 0.000000 0.000000 17.611279 -6.574673 5.763481 -37.560858 -7.234009 -18.875296 31.358778 40.996517 37.439851 -16.296985 -12.123019 2.164491 0.000000 0.000000 0.000000 20.822034 12.289498 -51.369773 -19.687889 27.622428 -16.559339 -143.725572 -66.681118 97.085489 9.124198 -4.188548 43.255197 -32.860338 18.241789 -1.276925 11.774152 1.158894 13.359474 0.000000 0.000000 0.000000 -13.987049 10.140338 -0.757628 -14.559965 6.556763 14.398362 0.000000 0.000000 0.000000 50.555058 -10.856202 0.419887 -61.759710 56.897167 5.730875 0.000000 0.000000 0.000000 6.490384 11.190915 2.656168 -49.023226 10.717811 13.275479 0.000000 0.000000 0.000000 -5.658815 30.345062 27.364151 -1.093389 -1.109623 -0.279725 0.000000 0.000000 0.000000 -33.767393 10.096569 65.590260 -81.227231 41.462774 21.030449 44.638563 -81.710938 -13.675489 3.665564 -14.225860 -2.756008 -23.123215 -38.944917 29.675817 -95.794762 16.709213 2.192571 0.000000 0.000000 0.000000 -13.224541 18.055411 -10.043499 -154.825872 54.016407 -10.407445 0.000000 0.000000 0.000000 -68.884709 32.797283 -85.008990 -40.481525 1.088111 5.652778 0.000000 0.000000 0.000000 -37.485273 41.946513 -44.236909 -80.079396 -0.314665 -8.634225 0.000000 0.000000 0.000000 -90.172147 -24.315398 65.308410 28.129575 28.208017 4.655316 0.000000 0.000000 0.000000 
-0.035307 0.946581 0.560219 117.654631 72.471290 114.697563 -15.772878 0.704023 8.264660 -1.605550 -5.309130 -11.168260 22.935383 15.502642 31.798581 0.000000 0.000000 0.000000 -7.698851 -15.354185 -25.816386 -45.862625 -4.668270 22.719643 50.428488 -70.562209 84.915707 0.000000 0.000000 0.000000 18.053136 -6.809465 5.706337 -37.547399 -7.500110 -19.747418 31.567860 40.919243 37.689541 -15.955086 -11.811933 1.649542 0.000000 0.000000 0.000000 21.158967 12.556014 -51.613387 -21.345222 25.290029 -17.330926 -126.798405 -68.906366 78.833545 9.626842 -4.077712 43.027725 -33.386926 15.643804 -1.485437 13.693801 1.489120 15.574848 0.000000 0.000000 0.000000 -15.758451 8.319601 -1.224374 -13.388374 7.758778 16.905937 0.000000 0.000000 0.000000 50.384789 -10.947963 -0.428264 -55.278893 63.849084 11.506500 0.000000 0.000000 0.000000 6.577380 9.131829 3.141151 -48.419035 12.854480 9.519980 0.000000 0.000000 0.000000 -6.197829 31.685527 26.794960 1.490665 -4.288762 -2.106372 0.000000 0.000000 0.000000 -38.286369 11.973077 69.402758 -82.587012 34.671552 27.181575 52.769407 -70.462397 -18.014295 6.288219 -8.083398 13.880772 -10.406438 -42.793112 23.321857 -82.286956 14.809191 14.829971 0.000000 0.000000 0.000000 -14.000076 11.725943 -5.940004 -105.780135 53.507145 47.317023 0.000000 0.000000 0.000000 -76.885310 24.139427 -79.509407 -43.130338 2.125283 9.861687 0.000000 0.000000 0.000000 -45.204417 33.304917 -41.826048 -85.656399 7.110375 7.345301 0.000000 0.000000 0.000000 -84.525406 -32.698527 74.070891 21.783981 27.017449 1.213384 0.000000 0.000000 0.000000 
-0.028711 0.946259 0.568138 98.421704 75.082714 96.234466 -15.141886 0.821791 8.809878 -0.623723 -5.181063 -13.659958 25.370784 17.689446 36.020262 0.000000 0.000000 0.000000 -4.765946 -13.016864 -27.362765 -45.766375 -4.082579 20.719402 41.004430 -71.029144 93.876968 0.000000 0.000000 0.000000 19.058712 -7.158126 7.499168 -39.603610 -9.120514 -22.695996 31.935181 39.939763 37.497457 -16.095241 -10.581016 -1.696318 0.000000 0.000000 0.000000 22.358294 18.781573 -53.650516 -20.232085 25.766926 -15.608195 -109.158503 -67.029220 59.840756 6.880584 -5.142904 42.567923 -29.341900 16.343438 -0.443455 10.426098 2.957893 15.230100 0.000000 0.000000 0.000000 -10.889828 6.260092 -0.041293 -17.442632 10.552170 14.007298 0.000000 0.000000 0.000000 52.519101 -9.665142 -0.518436 -50.619826 45.771491 11.881394 0.000000 0.000000 0.000000 8.228103 6.961845 2.703295 -41.993877 16.638052 9.978018 0.000000 0.000000 0.000000 -4.456148 30.882827 25.115301 -1.184886 -4.408638 -1.139438 0.000000 0.000000 0.000000 -45.750966 17.239453 71.178201 -83.466639 25.020855 34.017062 54.077776 -58.089740 -16.812794 9.215744 -6.494820 19.403559 -3.334234 -41.470981 18.715725 -75.018288 12.481301 15.944778 0.000000 0.000000 0.000000 -13.393002 9.268632 -4.332192 -83.597839 38.396290 57.803906 0.000000 0.000000 0.000000 -79.257190 21.269236 -73.598899 -44.334709 2.822451 13.060390 0.000000 0.000000 0.000000 -45.190035 28.841723 -36.949762 -82.036428 8.797028 14.849255 0.000000 0.000000 0.000000 -79.490820 -36.295144 72.798935 21.912268 25.749902 1.315658 0.000000 0.000000 0.000000 
-0.021173 0.945614 0.576057 90.277477 75.573610 88.338191 -14.472428 0.824631 9.427291 -0.195215 -5.086677 -14.520525 25.700062 18.312777 37.324114 0.000000 0.000000 0.000000 -3.768200 -11.637059 -26.922822 -45.596157 -3.985637 19.977887 39.044121 -72.429223 96.393217 0.000000 0.000000 0.000000 18.904344 -6.986213 8.026162 -39.410508 -9.353750 -23.888775 31.014389 39.244440 37.184122 -16.362637 -10.411761 -2.792236 0.000000 0.000000 0.000000 22.189223 20.173158 -53.203883 -20.100429 22.900590 -14.568201 -93.942709 -66.553550 45.605519 5.859784 -6.864508 42.860225 -27.365741 13.673896 -0.290327 11.508734 3.089142 15.189618 0.000000 0.000000 0.000000 -11.535642 6.322265 -0.086464 -10.427489 9.239954 16.019387 0.000000 0.000000 0.000000 51.974457 -10.384247 -3.198205 -40.103506 33.949742 15.214872 0.000000 0.000000 0.000000 9.740180 4.455662 1.804781 -37.954454 21.817125 13.195249 0.000000 0.000000 0.000000 -3.139233 31.198679 24.390455 -1.519894 -4.492095 -1.049827 0.000000 0.000000 0.000000 -52.651644 19.865561 73.577453 -82.921921 17.358043 38.810744 52.921551 -49.174906 -14.013233 13.114525 -3.237724 25.259538 4.576769 -40.727446 14.536133 -70.432854 10.883237 17.312815 0.000000 0.000000 0.000000 -9.480212 7.703517 -3.704078 -68.711431 25.429647 61.181468 0.000000 0.000000 0.000000 -79.710832 19.251999 -66.174240 -44.394160 3.468644 17.158583 0.000000 0.000000 0.000000 -42.441357 25.212721 -31.831047 -81.065005 11.942996 24.997799 0.000000 0.000000 0.000000 -73.819162 -39.829426 72.584559 20.313326 27.727509 0.086544 0.000000 0.000000 0.000000 
-0.013518 0.944647 0.585297 72.306098 75.259860 70.557554 -13.895207 0.862291 10.544309 0.272880 -4.968802 -16.202672 27.130053 19.937375 40.510933 0.000000 0.000000 0.000000 -2.175290 -9.720624 -26.745925 -45.378042 -3.635659 18.557715 36.126323 -72.870637 100.168481 0.000000 0.000000 0.000000 18.538164 -6.682731 9.400219 -40.654492 -10.603846 -25.705977 31.945232 38.228507 37.361284 -16.386255 -9.733726 -5.196170 0.000000 0.000000 0.000000 22.988810 24.169455 -53.041330 -20.108641 22.531420 -13.900625 -84.616625 -63.398060 36.427386 6.133804 -7.958080 43.631149 -28.518675 14.273598 -0.862665 18.574193 1.485831 16.106507 0.000000 0.000000 0.000000 -9.154409 5.912253 0.416594 -10.201904 10.086909 15.708625 0.000000 0.000000 0.000000 51.882004 -10.217087 -4.259590 -26.186028 33.232983 26.831086 0.000000 0.000000 0.000000 10.035306 6.829067 2.615265 -30.798985 19.712958 12.630994 0.000000 0.000000 0.000000 -3.062409 34.666516 25.514541 -0.158878 -6.823580 -2.517467 0.000000 0.000000 0.000000 -59.791446 22.726230 73.652965 -82.255190 10.281323 42.600765 51.858348 -42.647030 -12.335965 15.814331 -1.190308 30.581642 9.050332 -36.879495 10.925273 -65.459670 10.401629 22.265817 0.000000 0.000000 0.000000 -9.405699 8.691434 -4.500201 -60.746059 17.606528 58.699250 0.000000 0.000000 0.000000 -81.457596 16.630694 -61.254752 -41.508014 3.184681 21.297037 0.000000 0.000000 0.000000 -40.961308 21.964280 -27.980210 -75.349445 9.858911 29.633233 0.000000 0.000000 0.000000 -69.356371 -42.473049 70.737130 19.082216 26.771567 -0.408305 0.000000 0.000000 0.000000 
